<svg width="27" height="34" viewBox="0 0 27 34" fill="none" xmlns="http://www.w3.org/2000/svg">
<g clip-path="url(#clip0_877_81)">
<path d="M18.8204 5.21005H25.3104V31.4C25.3104 31.85 24.9404 32.2201 24.4904 32.2201H1.72039C1.27039 32.2201 0.900391 31.85 0.900391 31.4V3.05005" stroke="black" stroke-width="1.8" stroke-linecap="round" stroke-linejoin="round"/>
<path d="M24.8904 0.899902H3.05039C1.86039 0.899902 0.900391 1.8599 0.900391 3.0499C0.900391 4.2399 1.86039 5.1999 3.05039 5.1999H15.2904V12.3599C15.2904 12.5699 15.0504 12.6799 14.8904 12.5499L12.6804 10.6799C12.5904 10.5999 12.4504 10.5999 12.3604 10.6799L10.3904 12.4999C10.2304 12.6399 9.98039 12.5299 9.98039 12.3199L9.95039 5.1899" stroke="black" stroke-width="1.8" stroke-linecap="round" stroke-linejoin="round"/>
<path d="M5.91992 5.20996V32.22" stroke="black" stroke-width="1.8" stroke-miterlimit="10"/>
</g>
<defs>
<clipPath id="clip0_877_81">
<rect width="26.21" height="33.12" fill="white"/>
</clipPath>
</defs>
</svg>
