<svg width="68" height="68" viewBox="0 0 68 68" fill="none" xmlns="http://www.w3.org/2000/svg">
<g clip-path="url(#clip0_534_164)">
<path d="M68 33.9501C68.04 52.6501 52.79 67.9201 34 68.0001C15.29 68.0701 0.0200198 52.8101 1.97792e-05 34.0001C-0.0199802 15.2101 15.13 0.0400788 33.97 7.88182e-05C52.75 -0.0399212 67.97 15.1501 68 33.9501ZM58.61 52.8401C67.75 41.6101 67.94 22.8801 55 10.9801C42.31 -0.689921 22.51 0.240079 10.85 13.1201C-0.52998 25.6901 1.29002 43.4001 9.39002 52.6901C20.3 32.7001 47.9 32.8101 58.61 52.8401Z" fill="#DDDDDD"/>
<path d="M58.6101 52.8401C47.8901 32.8101 20.3001 32.7001 9.39008 52.6901C1.29008 43.4001 -0.529923 25.6901 10.8501 13.1201C22.5101 0.240083 42.3101 -0.689918 55.0001 10.9801C67.9401 22.8801 67.7601 41.6101 58.6101 52.8401ZM34.0301 12.2901C27.6601 12.2901 22.4901 17.4101 22.4601 23.7601C22.4301 30.2001 27.6001 35.4201 34.0101 35.4201C40.4401 35.4201 45.6101 30.2201 45.5701 23.7801C45.5301 17.4001 40.4101 12.2901 34.0301 12.2901Z" fill="white"/>
<path d="M34.0291 12.2901C40.4091 12.2901 45.5391 17.4001 45.5691 23.7801C45.6091 30.2201 40.4391 35.4201 34.0091 35.4201C27.5991 35.4201 22.4291 30.1901 22.4591 23.7601C22.4891 17.4101 27.6591 12.2801 34.0291 12.2901Z" fill="#DDDDDD"/>
</g>
<defs>
<clipPath id="clip0_534_164">
<rect width="68" height="68" fill="white"/>
</clipPath>
</defs>
</svg>
