<svg width="28" height="20" viewBox="0 0 28 20" fill="none" xmlns="http://www.w3.org/2000/svg">
  <g clip-path="url(#clip0_281_418)">
    <path d="M25.5798 10.97C25.4498 7.56999 23.8598 3.72999 20.6398 2.20999C17.0498 0.509994 12.4698 0.339994 8.99979 2.44999C8.16979 2.95999 7.32979 3.69999 6.74979 4.48999C5.60979 6.04999 4.97979 7.87999 4.71979 9.77999C4.58979 10.68 4.59979 11.53 4.59979 12.44C4.59979 12.44 6.01979 15.85 12.2098 15.27C15.5598 14.96 19.0798 14.95 22.3698 14.18C23.1698 13.99 23.9698 13.7 24.5998 13.17C25.1898 12.67 25.6098 11.76 25.5798 10.97Z" stroke="#CCCCCC" stroke-width="1.8" stroke-miterlimit="10" stroke-linecap="round" stroke-linejoin="round"/>
    <path d="M25.5901 10.55C26.3701 11.14 26.8001 12.96 26.6601 13.86C26.5001 14.89 25.8001 15.76 24.9901 16.38C23.3901 17.61 21.2301 17.92 19.2701 18.12C18.2001 18.23 17.1301 18.25 16.0601 18.33C14.7901 18.42 13.5001 18.44 12.2301 18.56C9.98014 18.78 7.68014 19.26 5.42014 18.94C3.71014 18.7 1.18014 17.99 0.910137 15.94C0.810137 15.15 1.27014 14.4 1.94014 13.79" stroke="#CCCCCC" stroke-width="1.8" stroke-miterlimit="10" stroke-linecap="round" stroke-linejoin="round"/>
    <path d="M15.0906 1.13989C11.6506 3.12989 10.1706 7.19989 9.9106 10.9899C9.8206 12.3399 9.8206 13.7199 9.9006 15.0599" stroke="#CCCCCC" stroke-width="1.8" stroke-miterlimit="10" stroke-linecap="round" stroke-linejoin="round"/>
  </g>
  <defs>
    <clipPath id="clip0_281_418">
      <rect width="27.58" height="19.96" fill="white"/>
    </clipPath>
  </defs>
</svg>
